<svg preserveAspectRatio="none" width="100%" height="100%" overflow="visible" style="display: block;" viewBox="0 0 62 60" fill="none" xmlns="http://www.w3.org/2000/svg">
<g id="Group 2147230518">
<path id="Vector" d="M58.3781 0H3.62444C1.62496 0.00260375 0.00516237 1.63524 0.00258317 3.65072V23.3808C0.00258317 23.3887 0 23.3939 0 23.3991V56.3493C0.00258317 58.3647 1.62232 59.9974 3.62185 60H58.3756C60.375 59.9974 61.9948 58.3648 61.9974 56.3493V23.4177C61.9974 23.4125 62 23.4073 62 23.3995V3.65139C61.9974 1.63598 60.3777 0.00259975 58.3781 0ZM41.3488 11.8815V22.8858H20.6432V11.8815H41.3488ZM60.9825 11.8815L60.9851 22.8858H42.3672V11.8815H60.9825ZM60.9799 34.916H42.3667V23.9117H60.9819L60.9799 34.916ZM1.01554 23.9117H19.6307V34.916H1.01554V23.9117ZM20.6465 23.9117H41.3496V34.916H20.6492L20.6465 23.9117ZM19.6261 22.8884L1.02083 22.8858V11.8815H19.6287L19.6261 22.8884ZM1.01554 35.9418H19.6307V46.9461H1.01554V35.9418ZM20.6465 35.9418H41.3496V46.9461H20.6492L20.6465 35.9418ZM42.3647 35.9418H60.9799V46.9461H42.3667L42.3647 35.9418ZM1.02083 3.65085C1.02083 2.20046 2.18848 1.0261 3.62483 1.0235H58.3785C59.8175 1.02611 60.9825 2.20046 60.9851 3.65085V10.8582H1.02077L1.02083 3.65085ZM1.01567 56.3492V47.97H19.6309V58.9743H3.62198V58.9769C2.18305 58.9743 1.01824 57.7996 1.01567 56.3492ZM20.6493 47.97H41.3497V58.9743L20.6493 58.9769V47.97ZM60.9827 56.3492H60.9801C60.9801 57.7996 59.8124 58.9739 58.3761 58.9765H42.3672V47.9696H60.9824L60.9827 56.3492Z" fill="var(--fill-0, #8396A5)"/>
<path id="Vector_2" d="M7 5.99915C7 7.33362 5 7.33362 5 5.99915C5 4.66695 7 4.66695 7 5.99915Z" fill="var(--fill-0, #F792A6)"/>
<path id="Vector_3" d="M11.9995 5C11.5961 5 11.2315 5.24363 11.0766 5.61705C10.9216 5.99047 11.0059 6.4208 11.293 6.7077C11.5779 6.99232 12.0087 7.07885 12.3824 6.92401C12.7562 6.76918 13 6.40487 13 5.9996C13 5.44858 12.5533 5 11.9995 5Z" fill="var(--fill-0, #F2BE88)"/>
<path id="Vector_4" d="M19 5.99915C19 7.33362 17 7.33362 17 5.99915C17 4.66695 19 4.66695 19 5.99915Z" fill="var(--fill-0, #8DDDA8)"/>
</g>
</svg>
