<svg preserveAspectRatio="none" width="100%" height="100%" overflow="visible" style="display: block;" viewBox="0 0 58.6 58" fill="none" xmlns="http://www.w3.org/2000/svg">
<g id="Group 2147230519">
<path id="Ellipse 18" d="M29.2998 0.5C37.3467 0.5 44.6099 1.72488 49.8428 3.68945C52.461 4.67241 54.5453 5.83089 55.9659 7.0918C57.387 8.35323 58.0996 9.67533 58.0996 11C58.0996 12.3247 57.387 13.6468 55.9659 14.9082C54.5453 16.1691 52.461 17.3276 49.8428 18.3105C44.6099 20.2751 37.3467 21.5 29.2998 21.5C21.2533 21.5 13.9907 20.275 8.75785 18.3105C6.1398 17.3277 4.0554 16.169 2.6348 14.9082C1.21364 13.6468 0.500035 12.3247 0.500035 11C0.500035 9.67533 1.21364 8.35323 2.6348 7.0918C4.0554 5.83099 6.1398 4.67234 8.75785 3.68945C13.9907 1.72499 21.2533 0.50002 29.2998 0.5Z" stroke="var(--stroke-0, #8396A5)"/>
<g id="Union">
<mask id="path-2-inside-1_0_4" fill="white">
<path d="M43 28C47.9706 28 52 32.0294 52 37C52 38.1716 51.7735 39.2898 51.3662 40.3164C55.1886 41.3555 58 44.8485 58 49C58 53.9706 53.9706 58 49 58H27C22.0295 58 18 53.9706 18 49C18 45.8725 19.5955 43.1179 22.0166 41.5049C22.2724 37.3173 25.7481 34 30 34C31.5338 34 32.9663 34.4323 34.1836 35.1807C35.0249 31.0822 38.6527 28 43 28Z"/>
</mask>
<path d="M51.3662 40.3164L50.4367 39.9476C50.3317 40.2123 50.3445 40.5091 50.4719 40.7638C50.5993 41.0184 50.8292 41.2067 51.1039 41.2814L51.3662 40.3164ZM27 58V59V59V58ZM22.0166 41.5049L22.5711 42.3371C22.8315 42.1636 22.9957 41.8782 23.0148 41.5658L22.0166 41.5049ZM34.1836 35.1807L33.6599 36.0325C33.9378 36.2034 34.2815 36.228 34.5809 36.0984C34.8803 35.9688 35.0976 35.7013 35.1632 35.3817L34.1836 35.1807ZM43 28V29C47.4183 29 51 32.5817 51 37H52H53C53 31.4772 48.5229 27 43 27V28ZM52 37H51C51 38.0416 50.7988 39.0349 50.4367 39.9476L51.3662 40.3164L52.2958 40.6852C52.7482 39.5448 53 38.3016 53 37H52ZM51.3662 40.3164L51.1039 41.2814C54.5023 42.2052 57 45.3116 57 49H58H59C59 44.3855 55.8749 40.5058 51.6286 39.3514L51.3662 40.3164ZM58 49H57C57 53.4183 53.4183 57 49 57V58V59C54.5229 59 59 54.5228 59 49H58ZM49 58V57H27V58V59H49V58ZM27 58V57C22.5818 57 19 53.4183 19 49H18H17C17 54.5228 21.4772 59 27 59V58ZM18 49H19C19 46.2211 20.4163 43.7726 22.5711 42.3371L22.0166 41.5049L21.4622 40.6727C18.7746 42.4632 17 45.524 17 49H18ZM22.0166 41.5049L23.0148 41.5658C23.2385 37.9023 26.2802 35 30 35V34V33C25.2159 33 21.3062 36.7322 21.0185 41.4439L22.0166 41.5049ZM30 34V35C31.3433 35 32.5953 35.378 33.6599 36.0325L34.1836 35.1807L34.7074 34.3288C33.3374 33.4865 31.7243 33 30 33V34ZM34.1836 35.1807L35.1632 35.3817C35.9109 31.7392 39.1369 29 43 29V28V27C38.1686 27 34.1389 30.4253 33.2041 34.9796L34.1836 35.1807Z" fill="var(--stroke-0, #8396A5)" mask="url(#path-2-inside-1_0_4)"/>
</g>
<path id="Vector 812" d="M0.500035 10.5V47" stroke="var(--stroke-0, #8396A5)"/>
<path id="Vector 815" d="M58 12L58 31" stroke="var(--stroke-0, #8396A5)" stroke-linecap="round"/>
<path id="Vector 813" d="M0.500035 30.5C1.83337 32.3333 6.20004 36.2 13 37" stroke="var(--stroke-0, #8396A5)" stroke-linecap="round"/>
<path id="Vector 814" d="M0.500035 47C1.83337 48.8333 6.20004 52.7 13 53.5" stroke="var(--stroke-0, #8396A5)" stroke-linecap="round"/>
</g>
</svg>
