<svg preserveAspectRatio="none" width="100%" height="100%" overflow="visible" style="display: block;" viewBox="0 0 39.9475 39.9448" fill="none" xmlns="http://www.w3.org/2000/svg">
<path id="Vector" d="M18.0422 0H21.8687C23.179 0.257323 24.3433 0.427468 25.631 0.809382C30.0993 2.12776 33.9669 4.96707 36.5654 8.83654C39.4925 13.2131 40.5796 18.5673 39.5914 23.7401C38.5881 28.9766 35.5337 33.5941 31.1088 36.5636C26.7304 39.4968 21.3719 40.5816 16.1986 39.582C10.9514 38.5855 6.32527 35.5188 3.36149 31.0724C1.10353 27.7016 0.771902 25.69 0 21.9043V17.9917C0.224219 17.1842 0.348912 15.9597 0.58039 15.0754C1.16654 12.8361 2.08463 10.762 3.36631 8.84657C5.94252 5.00149 9.76834 2.16656 14.195 0.822586C15.4265 0.451537 16.7716 0.252061 18.0422 0ZM16.185 15.4434C16.7563 15.9422 17.7981 16.7864 18.263 17.3132C17.6917 17.7602 16.6659 18.5486 16.1919 19.0543L16.1774 26.7967C16.1758 27.6685 16.1866 28.6588 16.1705 29.52C16.1312 31.6283 16.7858 31.8497 18.6856 31.8427L22.5329 31.7991C23.1681 31.6619 23.5859 31.2929 23.6515 30.6418C23.8463 28.7083 23.7442 26.4546 23.7264 24.5153C23.0335 23.7107 22.3435 23.3836 21.6872 22.7259C22.3819 21.922 23.0999 21.5828 23.7132 20.9482C23.7388 18.5273 23.7479 16.1063 23.7406 13.6853C23.7409 12.8434 23.9466 8.97638 23.2058 8.36896C22.647 7.91072 19.8728 8.05681 18.9447 8.0718C18.4729 8.07947 18.0011 8.09018 17.5292 8.10394C16.1232 8.36874 16.1533 9.58661 16.1539 10.7817C16.1548 12.335 16.1739 13.8901 16.185 15.4434Z" fill="var(--fill-0, #323236)"/>
</svg>
