<svg preserveAspectRatio="none" width="100%" height="100%" overflow="visible" style="display: block;" viewBox="0 0 26.6073 22.3896" fill="none" xmlns="http://www.w3.org/2000/svg">
<g id="g17003">
<path id="path17001" d="M25.9643 16.6463C22.8158 16.6463 22.328 15.5114 22.328 11.2608V1.00145C22.328 0.645379 22.0619 0.0445091 21.3524 0.0445091H17.6274C17.1617 0.0445091 16.6518 0.422835 16.6518 1.00145V1.46879C15.0331 0.534106 13.1485 0 11.1529 0C4.98887 0 0 5.00725 0 11.194C0 17.3807 4.98887 22.388 11.1529 22.388C13.9245 22.388 16.4522 21.3643 18.4034 19.6952C19.4455 21.2975 21.1307 22.3657 23.7692 22.388C24.2127 22.388 26.6073 22.477 26.6073 21.342V17.3585C26.6073 17.0247 26.3413 16.6463 25.9643 16.6463ZM11.1751 16.8244C8.09306 16.8244 5.58754 14.3096 5.58754 11.2162C5.58754 8.12287 8.09306 5.60812 11.1751 5.60812C14.2571 5.60812 16.7626 8.12287 16.7626 11.2162C16.7405 14.3096 14.2349 16.8244 11.1751 16.8244Z" fill="var(--fill-0, #007DC1)"/>
</g>
</svg>
