<svg preserveAspectRatio="none" width="100%" height="100%" overflow="visible" style="display: block;" viewBox="0 0 61.1825 29.9768" fill="none" xmlns="http://www.w3.org/2000/svg">
<g id="g16999">
<g id="g16993">
<path id="path16991" d="M11.1529 7.52195C4.98888 7.52195 0 12.5292 0 18.7159C0 24.9027 4.98888 29.9099 11.1529 29.9099C17.3169 29.9099 22.3058 24.9027 22.3058 18.7159C22.3058 12.5292 17.3169 7.52195 11.1529 7.52195ZM11.1529 24.3241C8.07089 24.3241 5.56537 21.8093 5.56537 18.7159C5.56537 15.6226 8.07089 13.1078 11.1529 13.1078C14.2349 13.1078 16.7404 15.6226 16.7404 18.7159C16.7404 21.8093 14.2349 24.3241 11.1529 24.3241Z" fill="var(--fill-0, #007DC1)"/>
</g>
<path id="path16995" d="M30.7538 22.477C30.7538 21.5868 31.8181 21.164 32.439 21.7871C35.2328 24.6357 39.8447 29.5317 39.8669 29.5539C39.9334 29.6207 39.9999 29.732 40.266 29.821C40.3768 29.8655 40.5542 29.8655 40.7538 29.8655H45.787C46.6961 29.8655 46.9621 28.8195 46.5409 28.2854L38.2039 19.7175L37.7604 19.2724C36.807 18.1374 36.9179 17.6923 38.0043 16.5351L44.6118 9.12434C45.0331 8.59023 44.767 7.56653 43.8358 7.56653H39.2682C39.0908 7.56653 38.9578 7.56653 38.8247 7.61103C38.5587 7.70005 38.4478 7.78907 38.3813 7.87809C38.3591 7.90034 34.7006 11.8616 32.439 14.2874C31.8181 14.955 30.7095 14.5099 30.7095 13.5975V0.890192C30.7095 0.244813 30.1774 1.37156e-05 29.7561 1.37156e-05H26.031C25.388 1.37156e-05 25.0776 0.422848 25.0776 0.801174V28.9753C25.0776 29.6207 25.6098 29.7987 26.0532 29.7987H29.7782C30.3547 29.7987 30.7317 29.3759 30.7317 28.9531V22.477H30.7538Z" fill="var(--fill-0, #007DC1)"/>
<path id="path16997" d="M61.1745 28.8418L60.7754 25.103C60.731 24.5912 60.2432 24.2351 59.7332 24.3241C59.445 24.3686 59.1567 24.3909 58.8685 24.3909C55.8973 24.3909 53.4805 22.0542 53.3031 19.0943V14.1984C53.3031 13.5975 53.7466 13.1079 54.3452 13.1079H59.3341C59.6889 13.1079 60.221 12.7963 60.221 12.1509V8.61248C60.221 7.9226 59.7776 7.56653 59.3785 7.56653H54.3452C53.7688 7.56653 53.3031 7.14369 53.281 6.56508V0.890192C53.281 0.53412 53.0149 1.37156e-05 52.3275 1.37156e-05H48.6247C48.159 1.37156e-05 47.7156 0.289322 47.7156 0.867937V19.0943C47.8708 25.1475 52.8153 29.9768 58.8685 29.9768C59.3785 29.9768 59.8663 29.9322 60.3541 29.8655C60.8862 29.7987 61.241 29.3536 61.1745 28.8418Z" fill="var(--fill-0, #007DC1)"/>
</g>
</svg>
